<?xml version="1.0" encoding="UTF-8"?>
<svg width="50px" height="50px" viewBox="0 0 50 50" version="1.1" xmlns="http://www.w3.org/2000/svg" xmlns:xlink="http://www.w3.org/1999/xlink">
    <!-- Generator: sketchtool 61.2 (101010) - https://sketch.com -->
    <title>1EE1845F-54B8-49B9-ADE4-C3FF4EDD0CFA</title>
    <desc>Created with sketchtool.</desc>
    <g id="Asset-Artboard-Page" stroke="none" stroke-width="1" fill="none" fill-rule="evenodd">
        <g id="átomo-/-icon-/-flickr-/-white-flickr">
            <g id="flickr">
                <rect id="Rectangle" stroke="#FFFFFF" opacity="0.3" x="0.5" y="0.5" width="49" height="49"></rect>
                <g id="Group-5" transform="translate(14.000000, 20.000000)" fill="#FFFFFF">
                    <path d="M17.2153846,9.86153846 C14.4692308,9.86153846 12.2430769,7.65384615 12.2430769,4.93230769 C12.2430769,2.20769231 14.4692308,9.50350909e-14 17.2153846,9.50350909e-14 C19.9630769,9.50350909e-14 22.1876923,2.20769231 22.1876923,4.93230769 C22.1876923,7.65384615 19.9615385,9.86153846 17.2153846,9.86153846" id="Path"></path>
                    <path d="M4.97384615,9.86153846 C2.22615385,9.86153846 1.29674049e-13,7.65384615 1.29674049e-13,4.93230769 C1.29674049e-13,2.20769231 2.22615385,9.50350909e-14 4.97384615,9.50350909e-14 C7.71846154,9.50350909e-14 9.94461538,2.20769231 9.94461538,4.93230769 C9.94461538,7.65384615 7.71846154,9.86153846 4.97384615,9.86153846" id="Path"></path>
                </g>
            </g>
        </g>
    </g>
</svg>