<?xml version="1.0" encoding="UTF-8"?>
<svg width="50px" height="50px" viewBox="0 0 50 50" version="1.1" xmlns="http://www.w3.org/2000/svg" xmlns:xlink="http://www.w3.org/1999/xlink">
    <!-- Generator: sketchtool 61.2 (101010) - https://sketch.com -->
    <title>8DC23BA2-5C70-4E0F-B3D5-71C01137AF54</title>
    <desc>Created with sketchtool.</desc>
    <g id="Asset-Artboard-Page" stroke="none" stroke-width="1" fill="none" fill-rule="evenodd">
        <g id="átomo-/-icon-/-instagram-/-white-instagram">
            <rect id="Rectangle" stroke="#FFFFFF" opacity="0.29671224" x="0.5" y="0.5" width="49" height="49"></rect>
            <path d="M26.0275584,15.0007796 C27.8279528,15.0040473 28.2087532,15.0184639 29.1229872,15.0601777 C30.1873706,15.1087248 30.9143063,15.277786 31.55038,15.5250069 C32.2079684,15.780524 32.7656443,16.1224573 33.3216134,16.6783866 C33.8775427,17.2343557 34.219476,17.7920316 34.4750328,18.44962 C34.722214,19.0856937 34.8912752,19.8126294 34.9398223,20.8770128 C34.9884884,21.9436191 35,22.2841631 35,25.0000198 C35,27.7158369 34.9884884,28.0563809 34.9398223,29.1229872 C34.8912752,30.1873706 34.722214,30.9143063 34.4750328,31.55038 C34.219476,32.2079684 33.8775427,32.7656443 33.3216134,33.3216134 C32.7656443,33.8775427 32.2079684,34.219476 31.55038,34.4750328 C30.9143063,34.722214 30.1873706,34.8912752 29.1229872,34.9398223 C28.2087532,34.9815361 27.8279528,34.9959527 26.0275584,34.9992204 L23.9724666,34.9992204 C22.1720472,34.9959527 21.7912468,34.9815361 20.8770128,34.9398223 C19.8126294,34.8912752 19.0856937,34.722214 18.44962,34.4750328 C17.7920316,34.219476 17.2343557,33.8775427 16.6783866,33.3216134 C16.1224573,32.7656443 15.780524,32.2079684 15.5250069,31.55038 C15.277786,30.9143063 15.1087248,30.1873706 15.0601777,29.1229872 C15.0184639,28.2087532 15.0040473,27.8279528 15.0007796,26.0275584 L15.0007796,23.9724666 C15.0040473,22.1720472 15.0184639,21.7912468 15.0601777,20.8770128 C15.1087248,19.8126294 15.277786,19.0856937 15.5250069,18.44962 C15.780524,17.7920316 16.1224573,17.2343557 16.6783866,16.6783866 C17.2343557,16.1224573 17.7920316,15.780524 18.44962,15.5250069 C19.0856937,15.277786 19.8126294,15.1087248 20.8770128,15.0601777 C21.7912468,15.0184639 22.1720472,15.0040473 23.9724666,15.0007796 Z M25.5558839,16.8019778 L24.4441476,16.8019778 C22.2789836,16.8035179 21.9354934,16.8155639 20.9591419,16.8601106 C19.9841517,16.9045691 19.4546593,17.0674776 19.1022862,17.2044256 C18.635512,17.385832 18.302391,17.6025274 17.9524791,17.9524791 C17.6025274,18.302391 17.385832,18.635512 17.2044256,19.1022862 C17.0674776,19.4546593 16.9045691,19.9841517 16.8601106,20.9591419 C16.8155639,21.9354934 16.8035179,22.2789836 16.8019778,24.4441476 L16.8019778,25.5558839 C16.8035179,27.7210164 16.8155639,28.0645066 16.8601106,29.0408581 C16.9045691,30.0158483 17.0674776,30.5453407 17.2044256,30.8977138 C17.385832,31.364488 17.6025671,31.697609 17.9524791,32.0475209 C18.302391,32.3974726 18.635512,32.614168 19.1022862,32.7955744 C19.4546593,32.9325224 19.9841517,33.0954309 20.9591419,33.1398894 C21.9353831,33.1844361 22.2787971,33.1964821 24.444108,33.1980222 L25.5559241,33.1980222 C27.7212083,33.1964821 28.0646536,33.1844361 29.0408581,33.1398894 C30.0158483,33.0954309 30.5453407,32.9325224 30.8977138,32.7955744 C31.364488,32.614168 31.697609,32.3974726 32.0475209,32.0475209 C32.3974726,31.697609 32.614168,31.364488 32.7955744,30.8977138 C32.9325224,30.5453407 33.0954309,30.0158483 33.1398894,29.0408581 C33.1844361,28.0645066 33.1964821,27.7210164 33.1980222,25.5558839 L33.1980222,24.4441476 C33.1964821,22.2789836 33.1844361,21.9354934 33.1398894,20.9591419 C33.0954309,19.9841517 32.9325224,19.4546593 32.7955744,19.1022862 C32.614168,18.635512 32.3974726,18.302391 32.0475209,17.9524791 C31.697609,17.6025274 31.364488,17.385832 30.8977138,17.2044256 C30.5453407,17.0674776 30.0158483,16.9045691 29.0408581,16.8601106 C28.0645066,16.8155639 27.7210164,16.8035179 25.5558839,16.8019778 Z M25.0000198,19.8648681 C27.8360733,19.8648681 30.1351319,22.1639267 30.1351319,25.0000198 C30.1351319,27.8360733 27.8360733,30.1351319 25.0000198,30.1351319 C22.1639267,30.1351319 19.8648681,27.8360733 19.8648681,25.0000198 C19.8648681,22.1639267 22.1639267,19.8648681 25.0000198,19.8648681 Z M25.0000198,21.6666667 C23.1590422,21.6666667 21.6666667,23.1590422 21.6666667,25.0000198 C21.6666667,26.8409578 23.1590422,28.3333333 25.0000198,28.3333333 C26.8409578,28.3333333 28.3333333,26.8409578 28.3333333,25.0000198 C28.3333333,23.1590422 26.8409578,21.6666667 25.0000198,21.6666667 Z M30.3380134,18.4619652 C31.0007621,18.4619652 31.5380348,18.9992379 31.5380348,19.6619866 C31.5380348,20.3247354 31.0007621,20.8619684 30.3380134,20.8619684 C29.6753043,20.8619684 29.1380316,20.3247354 29.1380316,19.6619866 C29.1380316,18.9992379 29.6753043,18.4619652 30.3380134,18.4619652 Z" id="Combined-Shape" fill="#FFFFFF" fill-rule="nonzero"></path>
        </g>
    </g>
</svg>