<?xml version="1.0" encoding="UTF-8"?>
<svg width="50px" height="50px" viewBox="0 0 50 50" version="1.1" xmlns="http://www.w3.org/2000/svg" xmlns:xlink="http://www.w3.org/1999/xlink">
    <!-- Generator: sketchtool 61.2 (101010) - https://sketch.com -->
    <title>0A5F77B8-1CF4-40A5-82F6-1CBE669B38A0</title>
    <desc>Created with sketchtool.</desc>
    <g id="Asset-Artboard-Page" stroke="none" stroke-width="1" fill="none" fill-rule="evenodd">
        <g id="átomo-/-icon-/-linkedin-/-white-linkedin">
            <g id="linkedin">
                <rect id="Rectangle" stroke="#FFFFFF" opacity="0.3" x="0.5" y="0.5" width="49" height="49"></rect>
                <g id="Group-3" transform="translate(16.000000, 16.000000)" fill="#FFFFFF">
                    <path d="M18.6507692,17.8230769 L14.6523077,17.8230769 L14.6523077,11.3892308 C14.6523077,9.77384615 14.0753846,8.67076923 12.6276923,8.67076923 C11.5230769,8.67076923 10.8661538,9.41384615 10.5769231,10.1323077 C10.4723077,10.3892308 10.4446154,10.7461538 10.4446154,11.1076923 L10.4446154,17.8230769 L6.44615385,17.8230769 C6.44615385,17.8230769 6.49846154,6.92615385 6.44615385,5.79846154 L10.4446154,5.79846154 L10.4446154,7.50153846 C10.4369231,7.51538462 10.4246154,7.52769231 10.4184615,7.54153846 L10.4446154,7.54153846 L10.4446154,7.50153846 C10.9753846,6.68461538 11.9230769,5.51538462 14.0476923,5.51538462 C16.6784615,5.51538462 18.6507692,7.23384615 18.6507692,10.9276923 L18.6507692,17.8230769 Z" id="Path"></path>
                    <path d="M2.23538462,4.15692308 L2.20923077,4.15692308 C0.869230769,4.15692308 -6.92779167e-14,3.23230769 -6.92779167e-14,2.07846154 C-6.92779167e-14,0.898461538 0.893846154,3.14415161e-13 2.26153846,3.14415161e-13 C3.63076923,3.14415161e-13 4.47076923,0.898461538 4.49692308,2.07846154 C4.49692308,3.23230769 3.63076923,4.15692308 2.23538462,4.15692308 L2.23538462,4.15692308 Z" id="Path"></path>
                    <polygon id="Path" points="0.236923077 17.8230769 4.23384615 17.8230769 4.23384615 5.79846154 0.236923077 5.79846154"></polygon>
                </g>
            </g>
        </g>
    </g>
</svg>