<?xml version="1.0" encoding="utf-8"?>
<!-- Generator: Adobe Illustrator 26.0.3, SVG Export Plug-In . SVG Version: 6.00 Build 0)  -->
<svg version="1.1" xmlns="http://www.w3.org/2000/svg" xmlns:xlink="http://www.w3.org/1999/xlink" x="0px" y="0px"
	 viewBox="0 0 50 50" style="enable-background:new 0 0 50 50;" xml:space="preserve">
<style type="text/css">
	.st0{fill:#FFFFFF;}
	.st1{opacity:0.3;fill:none;stroke:#FFFFFF;enable-background:new    ;}
</style>
<g id="Capa_2">
	<path class="st0" d="M31.6,18.7c0.2,0.2,0.4,0.4,0.6,0.5C32,19,31.8,18.9,31.6,18.7c-1.2-0.8-2.1-2-2.3-3.4c0-0.1,0-0.3-0.1-0.4
		v-0.5h-3.7v14.6c0,1.7-1.4,3.1-3.1,3.1c-0.5,0-1-0.1-1.4-0.3c-1-0.5-1.7-1.6-1.7-2.8c0-1.7,1.4-3.1,3.1-3.1c0.3,0,0.6,0.1,0.9,0.1
		v-2.9c0,0,0,0,0,0v-0.8c-0.3,0-0.6-0.1-0.9-0.1c-3.7,0-6.8,3-6.8,6.7c0,2.3,1.2,4.4,3,5.6c0,0,0,0,0,0c1.1,0.7,2.4,1.1,3.8,1.1
		c3.7,0,6.8-3,6.8-6.7v-7.5c1.4,1,3.2,1.6,5.1,1.6v-2.9v-0.8C33.3,19.4,32.4,19.2,31.6,18.7z M24.7,32.6c-0.4,0.2-0.8,0.2-1.2,0.2
		C23.9,32.9,24.3,32.8,24.7,32.6c0.4-0.2,0.7-0.4,1-0.7C25.4,32.3,25.1,32.5,24.7,32.6z M26.1,31.5c0.2-0.3,0.4-0.7,0.5-1.1
		C26.5,30.8,26.3,31.2,26.1,31.5z M33.2,19.8c0.1,0.1,0.2,0.1,0.3,0.2C33.4,19.9,33.3,19.9,33.2,19.8z M32.5,19.5
		c0.1,0.1,0.2,0.1,0.3,0.2C32.7,19.6,32.6,19.5,32.5,19.5z"/>
</g>
<g id="Capa_1">
	<desc>Created with sketchtool.</desc>
	<g id="Asset-Artboard-Page">
		<g id="átomo-_x2F_-icon-_x2F_-facebook-_x2F_-white-facebbok">
			<g id="facebbok">
				<rect id="Rectangle" x="0.5" y="0.5" class="st1" width="49" height="49"/>
			</g>
		</g>
	</g>
</g>
</svg>
