<?xml version="1.0" encoding="UTF-8"?>
<svg width="50px" height="50px" viewBox="0 0 50 50" version="1.1" xmlns="http://www.w3.org/2000/svg" xmlns:xlink="http://www.w3.org/1999/xlink">
    <!-- Generator: sketchtool 61.2 (101010) - https://sketch.com -->
    <title>3DBB6050-B636-403E-BA1F-A533EE4B7FEF</title>
    <desc>Created with sketchtool.</desc>
    <g id="Asset-Artboard-Page" stroke="none" stroke-width="1" fill="none" fill-rule="evenodd">
        <g id="átomo-/-icon-/-youtube-/-white-youtube">
            <g id="youtube">
                <rect id="Rectangle" stroke="#FFFFFF" opacity="0.3" x="0.5004" y="0.5004" width="49" height="49"></rect>
                <path d="M31.9969231,17.8584615 C33.1138462,17.9830769 34.0430769,18.82 34.3046154,19.9553846 C34.6769231,21.5707692 34.6738462,23.3353846 34.6738462,25 C34.6738462,26.6646154 34.6723077,28.4307692 34.3,30.0461538 C34.0384615,31.1815385 33.1092308,32.02 31.9923077,32.1446154 C29.3461538,32.4384615 26.6676923,32.4415385 24,32.4384615 C21.3323077,32.4415385 18.6538462,32.4384615 16.0076923,32.1446154 C14.8892308,32.02 13.9615385,31.1815385 13.7,30.0461538 C13.3649231,28.5923077 13.3314154,27.0163385 13.3280646,25.5021785 L13.3276923,25 C13.3276923,23.3353846 13.3323077,21.5707692 13.7046154,19.9553846 C13.9646154,18.82 14.8938462,17.9830769 16.0107692,17.8584615 C18.362906,17.5945299 20.7417854,17.5652042 23.1149921,17.5619458 L24.0046154,17.5615385 C26.6707692,17.5615385 29.3492308,17.5615385 31.9969231,17.8584615 Z M21.2464615,21.2555385 L21.2464615,28.314 C23.5141538,27.1386154 25.7618462,25.9724615 28.0326154,24.7955385 C25.7556923,23.6078462 23.508,22.4355385 21.2464615,21.2555385 Z" id="Combined-Shape" fill="#FFFFFF"></path>
            </g>
        </g>
    </g>
</svg>